<svg width="34" height="34" viewBox="0 0 34 34" fill="none" xmlns="http://www.w3.org/2000/svg">
<path d="M10.0949 21.7777C9.6467 22.2259 9.62535 23.0263 10.1056 23.4852C10.5645 23.9655 11.3756 23.9442 11.8239 23.4959L17 18.3198L22.1761 23.4959C22.635 23.9548 23.4248 23.9655 23.8837 23.4852C24.364 23.0263 24.3533 22.2259 23.8944 21.767L18.7183 16.5909L23.8944 11.4254C24.3533 10.9558 24.364 10.1661 23.8837 9.70714C23.4248 9.22688 22.635 9.23755 22.1761 9.69646L17 14.8726L11.8239 9.69646C11.3756 9.24822 10.5645 9.22688 10.1056 9.70714C9.62535 10.1661 9.6467 10.9665 10.0949 11.4147L15.2711 16.5909L10.0949 21.7777Z" fill="#A19FA5"/>
</svg>
